<!-- Copyright © 2015 MODULUS Sp. z o. o. / FUTURAMO™ --><svg xmlns="http://www.w3.org/2000/svg" x="0px" y="0px" width="64px" height="64px" viewBox="0 0 64 64"><rect x="0" y="0" width="64" height="64" rx="0" ry="0" fill="#666666"></rect><rect x="0.5" y="0.5" width="63" height="63" rx="0" ry="0" fill="#008484"></rect><path transform="translate(16, 16)" fill="#FFFFFF" d="M24.394,0.575C24.011,0.192,23.508,0,23.006,0C22.503,0,22,0.192,21.617,0.575l-8.431,8.431 c-0.767,0.767-0.767,2.011,0,2.778l7.03,7.03c0.384,0.383,0.886,0.575,1.389,0.575c0.503,0,1.005-0.192,1.389-0.575l8.431-8.431 c0.767-0.767,0.767-2.011,0-2.778L24.394,0.575z M21.604,15.961l-1.828-1.828l2.166-2.166c0.391-0.391,0.391-1.024,0-1.414 l-0.653-0.653c-0.391-0.391-1.024-0.391-1.414,0l-2.166,2.166l-1.669-1.669l6.966-6.966l5.565,5.565L21.604,15.961z M7.606,31.425 C7.989,31.808,8.492,32,8.994,32c0.503,0,1.005-0.192,1.389-0.575l8.431-8.431c0.767-0.767,0.767-2.011,0-2.778l-7.03-7.03 c-0.383-0.384-0.886-0.575-1.389-0.575s-1.005,0.192-1.389,0.575l-8.431,8.431c-0.767,0.767-0.767,2.011,0,2.778L7.606,31.425z  M10.396,16.039l1.669,1.669l-1.803,1.803c-0.391,0.391-0.391,1.024,0,1.414l0.653,0.653c0.391,0.391,1.024,0.391,1.414,0 l1.803-1.803l1.828,1.828l-6.966,6.966l-5.565-5.565L10.396,16.039z M25.367,28.958l-4.553-8.055l8.055,4.553 c0.272,0.154,0.457,0.426,0.499,0.735c0.042,0.31-0.063,0.621-0.284,0.842l-2.139,2.139c-0.221,0.221-0.533,0.326-0.842,0.284 C25.793,29.414,25.521,29.23,25.367,28.958z M6.662,3.248l4.553,8.055L3.16,6.75C2.888,6.597,2.703,6.325,2.661,6.015 c-0.042-0.31,0.063-0.621,0.284-0.842l2.139-2.139C5.305,2.812,5.617,2.707,5.927,2.75C6.236,2.792,6.508,2.976,6.662,3.248z"></path></svg>